# xmcd CD database file
#
# Track frame offsets:
#	150
#	22010
#	43246
#	69497
#	85285
#	110707
#	139550
#	165856
#	189486
#	208286
#	230116
#	251134
#	272941
#	283550
#
# Disc length: 4361 seconds
#
# Revision: 0
# Processed by: cddbd v1.5.1PL2 Copyright (c) Steve Scherf et al.
# Submitted via: CDex 1.51
#
DISCID=d611070e
DTITLE=Various Artist - Break n' bossa the maximum joy
DYEAR=2004
DGENRE=Club
TTITLE0=Gerardo Frisina - Mas eu quer ser
TTITLE1=Was-A-Bee - This Is What You Are
TTITLE2=Soulstance - The Aftermath Of Love
TTITLE3=Balanco - More
TTITLE4=S-Tone Inc. - Rendez-vous a minuit
TTITLE5=Toco - Instalacao do samba (club)
TTITLE6=Vibrazioni Productions - Life
TTITLE7=The Dining Rooms - Tunnel (Gone Remix)
TTITLE8=Neos - G-Bossa
TTITLE9=Soulstance - Life Up
TTITLE10=Nicola Conte apresenta Rosalia De Souza - Tempo futuro
TTITLE11=Paolo Fedreghini e Marco Bianchi feat Ermanno Principe - Oriental Smile
TTITLE12=Balanco - Batucada do silencio
TTITLE13=The Dining Rooms - Fluxus (The Cinematic Orchestra World Goes Round Mix)
EXTD=YEAR: 2004
EXTT0=
EXTT1=
EXTT2=
EXTT3=
EXTT4=
EXTT5=
EXTT6=
EXTT7=
EXTT8=
EXTT9=
EXTT10=
EXTT11=
EXTT12=
EXTT13=
PLAYORDER=
